# xmcd
#
# Track frame offsets:
#	150
#	25088
#	51488
#	77653
#	94163
#	114938
#	139638
#	142928
#	165500
#	186513
#	206113
#
# Disc length: 3030 seconds
#
# Revision: 0
# Processed by: cddbd v1.5.2PL0 Copyright (c) Steve Scherf et al.
# Submitted via: EasyCDDAExtractor 10.0.5.1
#
DISCID=930bd40b
DTITLE=郭子 - 鴿子與海
DYEAR=1995
DGENRE=Ballad
TTITLE0=旅程
TTITLE1=鴿子與海
TTITLE2=永遠美麗的寶島
TTITLE3=瞬間與永遠
TTITLE4=把我的手握緊
TTITLE5=兩心
TTITLE6=TINA（媽媽）
TTITLE7=另一個天地
TTITLE8=心曾被愛傷透
TTITLE9=藍雨衣
TTITLE10=心像田中空氣一樣新
EXTD=
EXTT0=
EXTT1=
EXTT2=
EXTT3=
EXTT4=
EXTT5=
EXTT6=
EXTT7=
EXTT8=
EXTT9=
EXTT10=
PLAYORDER=
